<?xml version="1.0" encoding="utf-8"?>
<!-- Generator: Adobe Illustrator 19.1.0, SVG Export Plug-In . SVG Version: 6.00 Build 0)  -->
<svg version="1.1" id="Layer_1" xmlns="http://www.w3.org/2000/svg" xmlns:xlink="http://www.w3.org/1999/xlink" x="0px" y="0px"
	 width="1000px" height="1000px" viewBox="0 0 1000 1000" style="enable-background:new 0 0 1000 1000;" xml:space="preserve">
<style type="text/css">
	.st0{fill:#BA4200;}
	.st1{fill:#FF7F00;}
	.st2{fill:#F9A62D;}
</style>
<g>
	<path id="rect2200" class="st0" d="M459.3,674.9l297.6,103c27,11.9,27,59,0,70.9l-297.6,131c-27,11.9-70.4,11.9-97.4,0l-297.6-131
		c-27-11.9-27-58.5,0-70.4l297.6-103.5C388.8,663,432.3,663,459.3,674.9L459.3,674.9z"/>
	<path class="st1" d="M754,776.9l-129.4-57.3L463.5,61h-107c0,0-125.7,518.9-159.4,658.3l-130,57.6c-26.7,11.8-26.7,31,0,42.9
		l295.2,131c26.7,11.8,69.9,11.8,96.6,0l295.2-131C780.7,807.9,780.7,788.7,754,776.9z"/>
	<path id="path1336" class="st2" d="M287,357.5c86,48.8,167,33.9,246.9,0l39.8,161.4c-58.1,78.9-312.5,60.9-325.2,0
		C248.6,518.9,287,357.5,287,357.5z"/>
	<path id="path1317" class="st2" d="M463.5,61.5c0.2,10.7-23.6,19.5-53.1,19.5c-29.6,0.1-53.7-8.6-53.9-19.3c0-0.1,0-0.2,0-0.3
		C356.2,50.8,380,42,409.6,42c29.6-0.1,53.7,8.6,53.9,19.3C463.5,61.3,463.5,61.4,463.5,61.5z"/>
	<path id="path2247" class="st0" d="M446.4,61.8c0.1,7.2-16.1,13.1-36.2,13.1c-20.1,0.1-36.5-5.7-36.7-12.9c0-0.1,0-0.1,0-0.2
		c-0.1-7.2,16.1-13.1,36.2-13.1c20.1-0.1,36.5,5.7,36.7,12.9C446.4,61.6,446.4,61.7,446.4,61.8z"/>
	<path id="path2808" class="st2" d="M337.3,148.9c52.4,27.7,99.8,19.5,145.5,0l23.5,95.2c-34.2,47-184.2,36.9-191.7,0
		C314.7,244.1,337.3,148.9,337.3,148.9z"/>
</g>
</svg>
